<?xml version="1.0" encoding="UTF-8" standalone="no"?>
<svg
   version="1.1"
   viewBox="0 0 1113.2953 399.04379"
   id="svg39"
   sodipodi:docname="logo-tvmax-ERP-grayscale.svg"
   inkscape:version="1.3 (0e150ed6c4, 2023-07-21)"
   inkscape:export-filename="logo-nuevo-tvmax.png"
   inkscape:export-xdpi="224.78049"
   inkscape:export-ydpi="224.78049"
   width="1113.2953"
   height="399.04379"
   xmlns:inkscape="http://www.inkscape.org/namespaces/inkscape"
   xmlns:sodipodi="http://sodipodi.sourceforge.net/DTD/sodipodi-0.dtd"
   xmlns="http://www.w3.org/2000/svg"
   xmlns:svg="http://www.w3.org/2000/svg">
  <defs
     id="defs39">
    <inkscape:path-effect
       effect="fillet_chamfer"
       id="path-effect46"
       is_visible="true"
       lpeversion="1"
       nodesatellites_param="F,0,1,1,0,1.9159186,0,1 @ F,0,1,1,0,1.9159186,0,1 @ F,0,1,1,0,1.9159186,0,1 @ F,0,1,1,0,1.9159186,0,1 @ F,0,1,1,0,1.9159186,0,1 @ F,0,1,1,0,1.9159186,0,1 @ F,0,1,1,0,1.9159186,0,1 @ F,0,1,1,0,1.9159186,0,1 @ F,0,1,1,0,1.9159186,0,1 @ F,0,1,1,0,1.9159186,0,1 @ F,0,1,1,0,1.9159186,0,1 @ F,0,1,1,0,1.9159186,0,1 @ F,0,1,1,0,1.9159186,0,1 @ F,0,1,1,0,1.9159186,0,1 @ F,0,1,1,0,1.9159186,0,1 @ F,0,1,1,0,1.9159186,0,1 @ F,0,1,1,0,1.9159186,0,1 @ F,0,1,1,0,1.9159186,0,1 @ F,0,1,1,0,1.9159186,0,1 @ F,0,1,1,0,1.9159186,0,1 @ F,0,1,1,0,1.9159186,0,1 @ F,0,1,1,0,1.9159186,0,1 @ F,0,1,1,0,1.9159186,0,1 @ F,0,1,1,0,1.9159186,0,1 @ F,0,1,1,0,1.9159186,0,1 @ F,0,1,1,0,1.9159186,0,1 @ F,0,1,1,0,1.9159186,0,1 @ F,0,1,1,0,1.9159186,0,1 @ F,0,1,1,0,1.9159186,0,1 @ F,0,1,1,0,1.9159186,0,1 @ F,0,1,1,0,1.9159186,0,1"
       radius="0"
       unit="px"
       method="auto"
       mode="F"
       chamfer_steps="1"
       flexible="false"
       use_knot_distance="true"
       apply_no_radius="true"
       apply_with_radius="true"
       only_selected="false"
       hide_knots="false" />
    <inkscape:path-effect
       effect="fillet_chamfer"
       id="path-effect45"
       is_visible="true"
       lpeversion="1"
       nodesatellites_param="F,0,0,1,0,58.405335,0,1 @ F,0,0,1,0,73.401228,0,1 @ F,0,0,1,0,56.885393,0,1 @ F,0,0,1,0,131.26218,0,1"
       radius="0"
       unit="px"
       method="auto"
       mode="F"
       chamfer_steps="1"
       flexible="false"
       use_knot_distance="true"
       apply_no_radius="true"
       apply_with_radius="true"
       only_selected="false"
       hide_knots="false" />
    <inkscape:path-effect
       effect="fillet_chamfer"
       id="path-effect44"
       is_visible="true"
       lpeversion="1"
       nodesatellites_param="F,0,0,1,0,0,0,1 @ F,0,0,1,0,0,0,1 @ F,0,0,1,0,34.666984,0,1 @ F,0,0,1,0,0,0,1"
       radius="0"
       unit="px"
       method="auto"
       mode="F"
       chamfer_steps="1"
       flexible="false"
       use_knot_distance="true"
       apply_no_radius="true"
       apply_with_radius="true"
       only_selected="false"
       hide_knots="false" />
  </defs>
  <sodipodi:namedview
     id="namedview39"
     pagecolor="#ffffff"
     bordercolor="#000000"
     borderopacity="0.25"
     inkscape:showpageshadow="2"
     inkscape:pageopacity="0.0"
     inkscape:pagecheckerboard="0"
     inkscape:deskcolor="#d1d1d1"
     inkscape:zoom="0.70710678"
     inkscape:cx="569.92807"
     inkscape:cy="212.83914"
     inkscape:window-width="1920"
     inkscape:window-height="997"
     inkscape:window-x="0"
     inkscape:window-y="0"
     inkscape:window-maximized="1"
     inkscape:current-layer="svg39"
     showguides="false" />
  <path
     id="path88"
     style="display:inline;opacity:1;fill:none;stroke:#bdbdbd;stroke-width:34;stroke-dasharray:none;stroke-opacity:1"
     d="m 127.28592,311.94533 h 291.92913 m 0,-215.975998 H 127.28592 m 0,0.002 C 66.360378,96.067732 16.99992,144.37627 17,203.95836 c -8e-5,59.58211 49.360378,107.89066 110.28592,107.98705"
     inkscape:label="linea-TV"
     sodipodi:nodetypes="ccccccc" />
  <ellipse
     style="opacity:1;fill:#bdbdbd;fill-opacity:1;stroke:none;stroke-width:8;stroke-dasharray:none;stroke-opacity:1"
     id="path40"
     cx="549.50153"
     cy="199.5219"
     rx="199.52191"
     ry="199.5219"
     inkscape:label="Circulo" />
  <path
     id="rect45"
     style="display:inline;opacity:1;fill:#ffffff;fill-opacity:1;stroke:none;stroke-width:4.085;stroke-dasharray:none;stroke-opacity:1"
     d="m 438.0976,106.55079 c 35.37286,-27.116178 189.82605,-28.688958 221.80986,0 31.9838,28.68897 27.99433,157.23853 0,185.23286 -27.99433,27.99433 -194.77416,25.52892 -221.80986,3.36871 -28.73065,-23.5495 -35.37286,-161.48539 0,-188.60157 z"
     sodipodi:nodetypes="zzzcz"
     inkscape:label="Tele-Roja" />
  <path
     id="path45"
     style="display:inline;opacity:1;fill:#616161;fill-opacity:1;stroke:none;stroke-width:1.085;stroke-dasharray:none;stroke-opacity:1"
     inkscape:label="MAX"
     d="m 452.07606,154.10754 -36.50318,73.07458 c 0.95713,9.35165 2.3321,18.3375 4.09952,26.60902 l 39.72007,-80.51758 -15.44744,68.60238 h 16.85352 l 52.71484,-68.6289 -33.32812,68.6289 h 33.1582 l 17.38281,-19.8164 h 37.07032 l -2.07813,19.8164 h 34.92578 l 35.12696,-29.5039 4.91601,29.5039 h 22.4961 l -7.94284,-45.85251 26.38541,-22.20838 c -0.42325,-5.61269 -1.01603,-11.11259 -1.78465,-16.40904 l -27.42498,22.63109 -4.48047,-25.94531 -22.43802,0.0205 7.32226,42.19727 -47.29492,39.33593 6.8711,-81.5332 h -19.61133 l -72.02149,79.28125 39.26563,-79.28125 h -27.43164 l -45.52149,59.45313 12.35938,-59.45313 z m 120.45686,20.39926 -3.53125,32.65821 h -24.92968 z"
     sodipodi:nodetypes="cccccccccccccccccccccccccccccccccccc" />
  <path
     style="opacity:1;fill:#bdbdbd;fill-opacity:1;stroke:none;stroke-width:1.085;stroke-dasharray:none;stroke-opacity:1"
     d="m 143.10595,157.22075 h 73.00729 l -3.11179,15.86296 h -26.5104 l -15.83838,76.88882 h -19.866 l 16.04179,-76.88882 h -27.00674 z"
     id="path48"
     sodipodi:nodetypes="ccccccccc"
     inkscape:label="Te" />
  <path
     style="opacity:1;fill:#bdbdbd;fill-opacity:1;stroke:none;stroke-width:1.085;stroke-dasharray:none;stroke-opacity:1"
     d="m 227.06537,157.22075 h 19.62351 l 11.65082,68.71786 37.33745,-68.71786 h 19.83636 l -51.25653,92.75178 h -20.76007 z"
     id="path49"
     sodipodi:nodetypes="cccccccc"
     inkscape:label="Ve" />
  <path
     style="font-size:166.667px;font-family:Sans;-inkscape-font-specification:Sans;fill:#616161;stroke:#616161;stroke-width:0.5"
     d="m 813.7341,143.19103 h 76.82308 v 13.83466 h -60.38424 v 35.97012 h 57.86145 v 13.83467 h -57.86145 v 44.02678 h 61.84908 v 13.83467 H 813.7341 Z m 162.92351,64.53463 q 5.28973,1.79037 10.25393,7.64976 5.04558,5.85938 10.09117,16.11331 l 16.68299,33.2032 h -17.65956 l -15.54365,-31.16869 q -6.02215,-12.20705 -11.71877,-16.19469 -5.61525,-3.98764 -15.38089,-3.98764 h -17.90369 v 51.35102 h -16.43883 v -121.5009 h 37.10945 q 20.83338,0 31.0873,8.7077 10.25393,8.7077 10.25393,26.28586 0,11.47463 -5.3711,19.043 -5.28973,7.56838 -15.46228,10.49807 z m -41.17847,-51.02549 v 43.1316 h 20.67062 q 11.88153,0 17.90368,-5.45249 6.10353,-5.53386 6.10353,-16.19469 0,-10.66083 -6.10353,-16.03194 -6.02215,-5.45248 -17.90368,-5.45248 z m 115.80426,0 v 45.65439 h 20.6706 q 11.4747,0 17.7409,-5.94077 6.2663,-5.94077 6.2663,-16.92712 0,-10.90497 -6.2663,-16.84573 -6.2662,-5.94077 -17.7409,-5.94077 z m -16.4388,-13.50914 h 37.1094 q 20.4265,0 30.8432,9.27736 10.4981,9.19598 10.4981,27.01828 0,17.98507 -10.4981,27.18105 -10.4167,9.19598 -30.8432,9.19598 h -20.6706 v 48.82823 h -16.4388 z"
     id="text1"
     inkscape:label="ERP"
     aria-label="ERP" />
</svg>
